# Blender v2.91.0 OBJ File: ''
# www.blender.org
mtllib bedside.mtl
o Cube
v -0.545712 2.773613 -1.253725
v -0.545712 1.628046 -1.253725
v -0.545712 2.773613 1.253725
v -0.545712 1.628046 1.253725
v 1.500000 3.000181 -1.500000
v 1.500000 0.000181 -1.500000
v 1.500000 3.000181 1.500000
v 1.500000 0.000181 1.500000
v -1.500000 3.000181 -1.500000
v -1.500000 0.000181 -1.500000
v -1.500000 3.000181 1.500000
v -1.500000 0.000181 1.500000
v 1.500000 2.773613 -1.253725
v 1.500000 2.773613 1.253725
v 1.500000 1.628046 1.253725
v 1.500000 1.628046 -1.253725
vt 0.371910 0.500000
vt 0.371910 0.000000
vt 0.094326 0.000000
vt 0.094326 0.500000
vt 0.649494 0.000000
vt 0.371910 0.000000
vt 0.371910 0.500000
vt 0.649494 0.500000
vt 0.927078 0.000000
vt 0.649494 0.000000
vt 0.649494 0.500000
vt 0.927078 0.500000
vt 0.371910 1.000000
vt 0.371910 0.500000
vt 0.094326 0.500000
vt 0.094326 1.000000
vt 0.649494 1.000000
vt 0.927078 1.000000
vt 0.671037 0.750000
vt 0.875000 0.750000
vt 0.875000 0.500000
vt 0.671037 0.500000
vt 0.375000 1.000000
vt 0.625000 1.000000
vt 0.625000 0.796037
vt 0.375000 0.796037
vt 0.375000 0.000000
vt 0.375000 0.250000
vt 0.625000 0.250000
vt 0.625000 0.000000
vt 0.328963 0.500000
vt 0.125000 0.500000
vt 0.125000 0.750000
vt 0.328963 0.750000
vt 0.375000 0.453963
vt 0.625000 0.453963
vt 0.392874 0.958954
vt 0.371910 1.000000
vt 0.649494 1.000000
vt 0.649494 0.500000
vt 0.392874 0.541046
vt 0.498871 0.541046
vt 0.498871 0.958954
vn 0.0000 1.0000 0.0000
vn 0.0000 0.0000 1.0000
vn -1.0000 0.0000 0.0000
vn 0.0000 -1.0000 0.0000
vn 0.0000 0.0000 -1.0000
vn 1.0000 0.0000 0.0000
usemtl Material
s off
f 5/1/1 9/2/1 11/3/1 7/4/1
f 8/5/2 7/6/2 11/7/2 12/8/2
f 12/9/3 11/10/3 9/11/3 10/12/3
f 10/13/4 6/14/4 8/15/4 12/16/4
f 10/12/5 9/11/5 5/17/5 6/18/5
f 14/19/4 3/20/4 1/21/4 13/22/4
f 4/23/5 3/24/5 14/25/5 15/26/5
f 4/27/6 2/28/6 1/29/6 3/30/6
f 16/31/1 2/32/1 4/33/1 15/34/1
f 1/29/2 2/28/2 16/35/2 13/36/2
f 14/37/6 7/38/6 8/39/6 6/40/6 5/1/6 13/41/6 16/42/6 15/43/6
f 13/41/6 5/1/6 7/38/6 14/37/6
o Cube.001
v 1.961738 2.773613 -1.253725
v 1.961738 1.628046 -1.253725
v 1.961738 2.773613 1.253725
v 1.961738 1.628046 1.253725
v -0.545712 2.773613 -1.253725
v -0.545712 1.628046 -1.253725
v -0.545712 2.773613 1.253725
v -0.545712 1.628046 1.253725
vt 0.625000 0.500000
vt 0.875000 0.500000
vt 0.875000 0.750000
vt 0.625000 0.750000
vt 0.375000 0.750000
vt 0.625000 1.000000
vt 0.375000 1.000000
vt 0.375000 0.000000
vt 0.625000 0.000000
vt 0.625000 0.250000
vt 0.375000 0.250000
vt 0.125000 0.500000
vt 0.375000 0.500000
vt 0.125000 0.750000
vn 0.0000 1.0000 0.0000
vn 0.0000 0.0000 1.0000
vn -1.0000 0.0000 0.0000
vn 0.0000 -1.0000 0.0000
vn 1.0000 0.0000 0.0000
vn 0.0000 0.0000 -1.0000
usemtl Material.001
s off
f 17/44/7 21/45/7 23/46/7 19/47/7
f 20/48/8 19/47/8 23/49/8 24/50/8
f 24/51/9 23/52/9 21/53/9 22/54/9
f 22/55/10 18/56/10 20/48/10 24/57/10
f 18/56/11 17/44/11 19/47/11 20/48/11
f 22/54/12 21/53/12 17/44/12 18/56/12
